<svg width="111" height="97" viewBox="0 0 111 97" fill="none" xmlns="http://www.w3.org/2000/svg">
<g filter="url(#filter0_d_16_69)">
<path fill-rule="evenodd" clip-rule="evenodd" d="M55.1889 57.8H57.1889C57.1889 57.8 57.7889 57.7 58.0889 57.4C58.3889 57.1 58.3889 56.5 58.3889 56.5C58.3889 56.5 58.3889 53.9 59.5889 53.5C60.7889 53.1 62.3889 56.1 63.9889 57.2C65.1889 58.1 66.0889 57.9 66.0889 57.9L70.4889 57.8C70.4889 57.8 72.7889 57.7 71.6889 55.8C71.5889 55.7 71.0889 54.5 68.3889 52C65.5889 49.4 65.9889 49.9 69.2889 45.4C71.2889 42.7 72.0889 41.1 71.8889 40.3C71.6889 39.6 70.1889 39.8 70.1889 39.8H65.1889C65.1889 39.8 64.7889 39.7 64.5889 39.9C64.2889 40.1 64.1889 40.4 64.1889 40.4C64.1889 40.4 63.3889 42.5 62.3889 44.3C60.1889 48 59.2889 48.2 58.9889 48C58.1889 47.5 58.3889 45.8 58.3889 44.7C58.3889 41.1 58.9889 39.6 57.2889 39.2C56.7889 39.1 56.3889 39 54.9889 39C53.1889 39 51.6889 39 50.8889 39.4C50.2889 39.7 49.8889 40.3 50.1889 40.3C50.4889 40.3 51.2889 40.5 51.6889 41C52.0889 41.9 52.0889 43.4 52.0889 43.4C52.0889 43.4 52.3889 47.7 51.3889 48.2C50.6889 48.6 49.7889 47.8 47.7889 44.4C46.7889 42.7 45.9889 40.7 45.9889 40.7C45.9889 40.7 45.8889 40.3 45.5889 40.1C45.2889 39.9 44.7889 39.8 44.7889 39.8H40.0889C40.0889 39.8 39.3889 39.8 39.0889 40.1C38.8889 40.4 39.0889 40.9 39.0889 40.9C39.0889 40.9 42.7889 49.5 46.9889 53.9C50.8889 58.1 55.1889 57.8 55.1889 57.8Z" fill="#FF0C0C" fill-opacity="0.78"/>
</g>
<defs>
<filter id="filter0_d_16_69" x="0" y="0" width="110.987" height="96.9189" filterUnits="userSpaceOnUse" color-interpolation-filters="sRGB">
<feFlood flood-opacity="0" result="BackgroundImageFix"/>
<feColorMatrix in="SourceAlpha" type="matrix" values="0 0 0 0 0 0 0 0 0 0 0 0 0 0 0 0 0 0 127 0" result="hardAlpha"/>
<feOffset/>
<feGaussianBlur stdDeviation="19.5"/>
<feColorMatrix type="matrix" values="0 0 0 0 1 0 0 0 0 0.0458333 0 0 0 0 0.0458333 0 0 0 0.78 0"/>
<feBlend mode="normal" in2="BackgroundImageFix" result="effect1_dropShadow_16_69"/>
<feBlend mode="normal" in="SourceGraphic" in2="effect1_dropShadow_16_69" result="shape"/>
</filter>
</defs>
</svg>
